<?xml version="1.0" standalone="no"?>
<!DOCTYPE svg PUBLIC "-//W3C//DTD SVG 20010904//EN"
 "http://www.w3.org/TR/2001/REC-SVG-20010904/DTD/svg10.dtd">
<svg version="1.0" xmlns="http://www.w3.org/2000/svg"
 width="512.000000pt" height="512.000000pt" viewBox="0 0 512.000000 512.000000"
 preserveAspectRatio="xMidYMid meet">
<metadata>
Created by potrace 1.14, written by Peter Selinger 2001-2017
</metadata>
<g transform="translate(0.000000,512.000000) scale(0.100000,-0.100000)"
fill="#000000" stroke="none">
<path d="M0 2560 l0 -2560 2560 0 2560 0 0 2560 0 2560 -2560 0 -2560 0 0
-2560z m3907 988 c33 -31 53 -71 53 -106 0 -16 -144 -434 -320 -928 -304 -852
-322 -901 -357 -931 -62 -56 -128 -56 -189 0 -32 29 -53 82 -260 662 -282 794
-266 750 -274 733 -4 -7 -112 -308 -240 -668 -127 -360 -240 -674 -251 -697
-11 -23 -35 -51 -53 -63 -68 -41 -167 -15 -203 53 -9 18 -157 427 -330 911
-231 648 -313 890 -313 923 0 60 55 122 116 130 56 7 109 -12 138 -50 14 -19
126 -320 267 -715 133 -375 246 -679 250 -675 3 5 113 310 244 678 130 369
244 683 254 700 24 41 77 75 118 75 43 0 98 -25 121 -55 10 -12 128 -331 262
-709 134 -377 247 -683 251 -678 3 4 104 282 224 617 267 750 270 756 299 784
56 53 142 57 193 9z"/>
</g>
</svg>
